<svg xmlns="http://www.w3.org/2000/svg" width="30.015" height="18.806" viewBox="0 0 30.015 18.806">
  <path id="bxl-behance" d="M11.7,8.6a11.466,11.466,0,0,1,2.407.232,5.25,5.25,0,0,1,1.865.762A3.6,3.6,0,0,1,17.182,11a4.98,4.98,0,0,1,.42,2.165,4.048,4.048,0,0,1-.631,2.326,4.564,4.564,0,0,1-1.884,1.522,4.428,4.428,0,0,1,2.535,1.719,5.13,5.13,0,0,1,.836,2.964,5.1,5.1,0,0,1-.537,2.42,4.665,4.665,0,0,1-1.461,1.671,6.473,6.473,0,0,1-2.1.96,9.431,9.431,0,0,1-2.413.309H3V8.6Zm-.526,7.458a2.942,2.942,0,0,0,1.788-.517,1.942,1.942,0,0,0,.695-1.679,2.214,2.214,0,0,0-.226-1.06,1.671,1.671,0,0,0-.625-.642,2.525,2.525,0,0,0-.9-.323,5.413,5.413,0,0,0-1.045-.091H7.065v4.313h4.113Zm.226,7.858a5.228,5.228,0,0,0,1.14-.115,2.664,2.664,0,0,0,.956-.392,1.939,1.939,0,0,0,.66-.736,2.559,2.559,0,0,0,.243-1.2,2.411,2.411,0,0,0-.8-2.037,3.427,3.427,0,0,0-2.121-.606H7.065v5.085H11.4Zm12.848-.061a3.267,3.267,0,0,0,2.376.807,3.294,3.294,0,0,0,1.917-.559,2.366,2.366,0,0,0,.98-1.185h3.232a6.128,6.128,0,0,1-2.383,3.449A6.928,6.928,0,0,1,26.5,27.4a7.679,7.679,0,0,1-2.85-.506,6.05,6.05,0,0,1-2.159-1.437,6.555,6.555,0,0,1-1.357-2.228,8.149,8.149,0,0,1-.48-2.849,7.835,7.835,0,0,1,.494-2.8,6.564,6.564,0,0,1,1.4-2.24,6.659,6.659,0,0,1,2.166-1.491,6.951,6.951,0,0,1,2.787-.543,6.354,6.354,0,0,1,2.969.66,5.95,5.95,0,0,1,2.085,1.773,7.258,7.258,0,0,1,1.175,2.537,9.444,9.444,0,0,1,.257,2.974H23.346a3.754,3.754,0,0,0,.909,2.594ZM28.47,16.83a2.746,2.746,0,0,0-2.078-.744,3.175,3.175,0,0,0-1.461.3,2.955,2.955,0,0,0-.93.736,2.658,2.658,0,0,0-.492.942,4.23,4.23,0,0,0-.167.88h5.973a3.57,3.57,0,0,0-.846-2.114ZM22.593,9.835h7.483v1.823H22.593Z" transform="translate(-3 -8.596)" fill="#fff"/>
</svg>
