<svg xmlns="http://www.w3.org/2000/svg" width="28.08" height="27.386" viewBox="0 0 28.08 27.386">
  <path id="social-github" d="M18,4.307a14.041,14.041,0,0,0-4.437,27.361c.7.13.958-.3.958-.676,0-.333-.012-1.215-.018-2.388-3.906.849-4.73-1.882-4.73-1.882a3.716,3.716,0,0,0-1.559-2.053c-1.275-.87.1-.854.1-.854a2.952,2.952,0,0,1,2.151,1.446,2.99,2.99,0,0,0,4.086,1.167,3,3,0,0,1,.891-1.878c-3.117-.354-6.395-1.559-6.395-6.939a5.427,5.427,0,0,1,1.445-3.768,5.049,5.049,0,0,1,.138-3.715s1.179-.377,3.861,1.44a13.27,13.27,0,0,1,7.03,0c2.681-1.818,3.858-1.44,3.858-1.44a5.042,5.042,0,0,1,.14,3.715,5.419,5.419,0,0,1,1.443,3.768c0,5.392-3.282,6.58-6.41,6.927a3.36,3.36,0,0,1,.953,2.6c0,1.876-.017,3.39-.017,3.85,0,.376.252.814.965.674A14.041,14.041,0,0,0,18,4.306Z" transform="translate(-3.96 -4.306)" fill="#fff" fill-rule="evenodd"/>
</svg>
