<svg xmlns="http://www.w3.org/2000/svg" width="22.959" height="24.198" viewBox="0 0 22.959 24.198"><path d="M10.05,19.616C5.014,21.127,5.014,17.1,3,16.594m14.1,6.043v-3.9a3.394,3.394,0,0,0-.947-2.629c3.163-.353,6.486-1.551,6.486-7.05a5.478,5.478,0,0,0-1.51-3.776,5.106,5.106,0,0,0-.091-3.8S19.85,1.134,17.1,2.977a13.476,13.476,0,0,0-7.05,0C7.3,1.134,6.112,1.487,6.112,1.487a5.106,5.106,0,0,0-.091,3.8A5.479,5.479,0,0,0,4.511,9.091c0,5.459,3.324,6.657,6.486,7.05a3.394,3.394,0,0,0-.947,2.6v3.9" transform="translate(-1.181 0.061)" fill="none" stroke="#6278b5" stroke-linecap="round" stroke-linejoin="round" stroke-width="3"/></svg>