<svg xmlns="http://www.w3.org/2000/svg" width="36.001" height="35.966" viewBox="0 0 36.001 35.966">
  <path id="website" d="M30.973,11.285a2.98,2.98,0,0,0-.527-.07,3.2,3.2,0,0,0-2.25.879,40.8,40.8,0,0,0-4.008-1.547,53.291,53.291,0,0,0-6.4-1.617,3.473,3.473,0,0,0-.949-1.406A38.808,38.808,0,0,1,19.195,0,18.1,18.1,0,0,1,33.328,8.473a35.42,35.42,0,0,0-2.355,2.813ZM14.66,6.715a3.261,3.261,0,0,0-1.723.492,41.3,41.3,0,0,0-5.73-3.586A17.533,17.533,0,0,1,16.98,0a36.419,36.419,0,0,0-2.215,6.715ZM2.461,8.9A18.863,18.863,0,0,1,5.484,5.1a43.254,43.254,0,0,1,4.957,3.023,29.685,29.685,0,0,0-7.98.773ZM11.285,10.3a3.25,3.25,0,0,0,.756,1.916,3.316,3.316,0,0,0,1.705,1.107q-.211,2.461-.211,4.676,0,1.547.1,3.551a3.359,3.359,0,0,0-1.371.844,32.312,32.312,0,0,1-3.656-1.688A3.5,3.5,0,0,0,9,19.125a3.257,3.257,0,0,0-.984-2.391,3.25,3.25,0,0,0-2.391-.984,3.23,3.23,0,0,0-2.566,1.2A24.3,24.3,0,0,1,.422,14.168a15.737,15.737,0,0,1,.949-2.988,30.61,30.61,0,0,1,9.914-.879Zm-9,9.1a3.257,3.257,0,0,0,1.072,2.2,3.233,3.233,0,0,0,2.268.9,2.878,2.878,0,0,0,.844-.141,31.262,31.262,0,0,0,4.816,2.25v.141a3.246,3.246,0,0,0,.932,2.338,3.32,3.32,0,0,0,2.3,1.037,37.936,37.936,0,0,0,2.461,7.84,17.742,17.742,0,0,1-6.645-1.705,17.775,17.775,0,0,1-9-9.51A17.535,17.535,0,0,1,0,18q0-.035.035-.949A19.216,19.216,0,0,0,2.285,19.406Zm15.328,6.926a41.461,41.461,0,0,0,5.1.6,3.915,3.915,0,0,0,.773,1.3A43.76,43.76,0,0,0,22.5,35.4a18.8,18.8,0,0,1-3.305.563,39.913,39.913,0,0,1-2.566-8.508,2.861,2.861,0,0,0,.984-1.125Zm10.9,1.688a3.291,3.291,0,0,0,.633-1.195,46.845,46.845,0,0,0,4.957-.668,17.88,17.88,0,0,1-4.641,5.73,30.77,30.77,0,0,0-.949-3.867Zm-5.73-3.34a33.568,33.568,0,0,1-4.852-.633,3.219,3.219,0,0,0-2-2.426q-.141-2.074-.141-3.621,0-2.32.211-4.816a.345.345,0,0,0,.176-.07.367.367,0,0,1,.141-.07q1.371,1.336,2.391,2.461a33.925,33.925,0,0,1,5.2,7.664,3.439,3.439,0,0,0-1.125,1.512Zm3.129,4.57q.07,0,.387-.035a31.155,31.155,0,0,1,.879,4.254,20.178,20.178,0,0,1-2.461,1.195,43.084,43.084,0,0,1,.844-5.449q.281.035.352.035Zm-.176-8.4q-.035.07-.088.211t-.088.211a37.927,37.927,0,0,0-5.2-7.277q-1.09-1.23-2.6-2.672.035,0,.053-.053l.018-.053a51.253,51.253,0,0,1,5.66,1.477A35.276,35.276,0,0,1,27.105,14.1a2.98,2.98,0,0,0-.07.527,3.237,3.237,0,0,0,.633,1.934,37.658,37.658,0,0,0-1.934,4.289Zm1.652,2.039q.422-1.23.422-1.266a40.093,40.093,0,0,1,1.758-3.762,2.978,2.978,0,0,0,.879.141,3.221,3.221,0,0,0,2.145-.809,34.967,34.967,0,0,1,3.375,2.672,17.762,17.762,0,0,1-.844,3.867,48.106,48.106,0,0,1-6.082.844,3.143,3.143,0,0,0-1.652-1.688Zm6.434-8.3a3.259,3.259,0,0,0-.773-2.109,22.455,22.455,0,0,1,1.477-1.723A17.71,17.71,0,0,1,36,16.7q-1.16-.879-2.25-1.582a2.522,2.522,0,0,0,.07-.527Z" fill="#fff"/>
</svg>
