<svg xmlns="http://www.w3.org/2000/svg" width="31.233" height="19.58" viewBox="0 0 31.233 19.58"><path d="M12.58,14.075A4.115,4.115,0,0,0,15.2,10.062C15.2,6.234,12.352,5.3,9.061,5.3H0V24.519H9.316c3.492,0,6.773-1.676,6.773-5.58a4.63,4.63,0,0,0-3.508-4.864ZM4.224,8.582H8.188c1.524,0,2.9.428,2.9,2.2,0,1.632-1.068,2.288-2.576,2.288H4.224V8.582ZM8.741,21.254H4.224V15.962h4.6c1.86,0,3.037.775,3.037,2.744,0,1.941-1.4,2.549-3.123,2.549ZM28.18,8.2H20.388V6.31H28.18V8.2Zm3.053,9.56c0-4.116-2.408-7.548-6.773-7.548a6.992,6.992,0,0,0-7.12,7.364c0,4.333,2.727,7.3,7.12,7.3a6.2,6.2,0,0,0,6.512-4.68H27.6a3.166,3.166,0,0,1-3.02,1.817c-2.239,0-3.416-1.312-3.416-3.541H31.2C31.217,18.25,31.233,18.006,31.233,17.762ZM21.169,16.07A2.987,2.987,0,0,1,24.341,13.1c1.92,0,2.885,1.128,3.047,2.971Z" transform="translate(0 -5.302)" fill="#6278b5"/></svg>