<?xml version="1.0" encoding="utf-8"?>
<!-- Generator: Adobe Illustrator 24.0.3, SVG Export Plug-In . SVG Version: 6.00 Build 0)  -->
<svg version="1.1" id="Layer_1" xmlns="http://www.w3.org/2000/svg" xmlns:xlink="http://www.w3.org/1999/xlink" x="0px" y="0px"
	 viewBox="0 0 30.2 35.9" style="enable-background:new 0 0 30.2 35.9;" xml:space="preserve">
<style type="text/css">
	.st0{fill:#FAD1A6;}
	.st1{fill:#084726;}
	.st2{fill:#F8BC84;}
	.st3{fill:#E38D6B;}
	.st4{fill:#0A2116;}
	.st5{fill:#FFFFFF;}
	.st6{fill:#7D5B14;}
	.st7{fill:#7F5012;}
</style>
<g>
	<g>
		<path class="st0" d="M21.2,12.7c-0.1-0.8,0.2-0.7,0.2-2.2c0-0.6,0-1,0-1.1c-0.1-0.5-0.1-1-0.3-1.4c-0.6-1.3-2.3-1.7-2.4-1.7
			c-0.9-0.2-0.9,0.2-2.3,0.1c-1.3-0.1-1.5-0.5-2.5-0.4c-0.4,0-0.7,0.1-1.4,0.2c-0.5,0-0.6,0-0.8,0.1c-0.7,0.2-1.1,0.6-1.2,0.7
			C10,7.4,10.1,7.6,9.5,8.7C9.1,9.4,9,9.5,8.8,10.1c-0.1,0.3-0.2,0.7-0.2,1.1c-0.1,1.2,0.1,1.6,0.2,3.1c0.1,0.8,0,0.9,0.1,1.9
			c0,0.7,0.1,1.3,0.4,1.9c0.2,0.4,0.4,0.8,0.4,1.3c0,0,0,0,0,0c0.1,0.1,0.3,0.3,0.4,0.4c0.2,0.2,0.4,0.4,0.7,0.6
			c0.2,0.2,0.6,0.4,1,0.5c0.1,0,0.3,0.1,0.9,0.2c0.4,0.1,0.9,0.2,1.6,0.2c1,0.1,1.7,0,1.9-0.1c0.4,0,1-0.1,1.8-0.4
			c0.5-0.2,0.9-0.4,1.3-0.5c0.1-0.1,0.2-0.1,0.3-0.2c0.2-0.2,0.4-0.4,0.6-0.6c0.1-0.1,0.2-0.2,0.3-0.3c0,0-0.1-0.1-0.2-0.1
			c-0.1,0-0.1-0.1-0.1-0.1c0-0.1,0.1-0.1,0.2-0.1c0.1,0,0.1,0,0.2,0c0.1,0,0.2-0.1,0.2-0.2c0.1-0.1,0-0.1,0-0.2
			c-0.2-0.1-0.1-0.2-0.1-0.3c0.3-0.6,0.5-1.2,0.5-1.9c0-0.7,0.1-1.5,0.1-2.2c0,0,0-0.1,0-0.1C21.3,13.4,21.2,12.9,21.2,12.7z"/>
		<path class="st0" d="M18.8,23.1c-0.1-0.3-0.1-0.7-0.3-1c-0.1-0.1-0.2,0-0.3,0.1c-0.9,0.5-1.9,0.7-2.9,0.7c-0.5,0-1,0-1.5-0.1
			c-0.7-0.1-1.4-0.3-2-0.6c-0.1-0.1-0.3-0.2-0.4-0.1c-0.1,0.1-0.1,0.2-0.1,0.3c0,0.3-0.1,0.5-0.2,0.8c-0.1,0.3-0.3,0.5-0.6,0.7
			c0.5,0.2,1.1,0.4,1.6,0.5c0.6,0.1,1.2,0.2,1.9,0.3c0.1,0,0.1,0,0.2,0c0.4,0.1,0.7,0.1,1.1,0c0.7-0.1,1.4-0.1,2.1-0.2
			c0.3-0.1,0.6-0.1,0.9-0.2c0.4-0.1,0.7-0.2,1.1-0.3C19.1,23.7,18.9,23.5,18.8,23.1z"/>
	</g>
	<g>
		<path class="st1" d="M17.9,13c0.3,0.1,0.6,0,0.8-0.3c0.3-0.4,0.1-1.1-0.2-1.3c0,0-0.1,0-0.1-0.1c-0.2-0.1-0.5,0-0.7,0.1
			c-0.1,0.1-0.2,0.2-0.2,0.3c0,0,0,0.1,0,0.2c0,0.1-0.1,0.5,0.2,0.8C17.7,12.8,17.8,12.9,17.9,13z"/>
		<path class="st1" d="M11.6,12.9c0.2,0.1,0.5,0.1,0.7-0.1c0.2-0.2,0.3-0.4,0.2-0.7c0-0.1,0-0.1,0-0.2c0-0.4-0.3-0.7-0.6-0.7
			c-0.4,0-0.7,0.2-0.8,0.6c0,0.2,0,0.3,0,0.5C11.2,12.7,11.4,12.9,11.6,12.9z"/>
		<path class="st1" d="M27.4,26.2c-0.2-1.3-1.6-2.2-1.7-2.3c-0.6-0.4-1.5-0.8-5.1-0.3c-3,0.4-3.5,0.8-5.4,0.9
			c-1.6,0-3.2-0.2-4.7-0.8c0,0-7.3-1.9-7.7,1.9c-0.3,2.7,5.9,8.7,13,8.5C21.8,33.9,27.8,29.1,27.4,26.2z"/>
	</g>
	<g>
		<path class="st2" d="M18.5,20.9c0.3-0.1,0.5-0.3,0.7-0.4c-0.2,0-0.2-0.2-0.2-0.4c0,0.1-0.1,0.1-0.1,0.2c-0.3,0.2-0.6,0.4-0.9,0.5
			c-0.5,0.2-1,0.4-1.5,0.5c-0.5,0.1-0.9,0.1-1.4,0.1c-0.8,0-1.5-0.1-2.3-0.3c-0.8-0.3-1.6-0.6-2.2-1.2c0,0-0.1-0.1-0.2,0
			c0.2,0.2,0.5,0.4,0.7,0.6c0,0,0,0-0.1,0.1c-0.1,0-0.1,0-0.2,0c0.2,0.2,0.4,0.3,0.7,0.4c0.1,0.1,0.2,0.1,0.1,0.3
			c0,0.3-0.1,0.7-0.1,1c0.5,0.2,1,0.5,1.6,0.6c0.4,0.1,0.9,0.2,1.3,0.2c0.6,0,1.2,0,1.7-0.1c0.5-0.1,0.9-0.2,1.4-0.3
			c0.4-0.1,0.7-0.3,1-0.5c0-0.3-0.1-0.6-0.1-0.9C18.4,21.1,18.4,20.9,18.5,20.9z"/>
		<path class="st2" d="M9.4,18.1c-0.3-0.7-0.4-1.3-0.4-2c0-0.6-0.1-1.2-0.1-1.8c0,0,0-0.1,0-0.1c0,0.1,0,0.1,0,0.2
			c-0.2-0.5-0.4-1-0.6-1.4c-0.2-0.8-0.4-1.5-0.5-2.3c-0.5,0.4-0.8,1-0.7,1.7c0,0.3,0,0.5,0.1,0.8c0.2,0.6,0.4,1.1,1,1.3
			c0.1,0,0.1,0.1,0.1,0.2c0,0.3,0.1,0.6,0.1,0.9c0,0.7,0.1,1.3,0.3,2c0.2,0.7,0.6,1.4,1,1.9c0.1-0.3,0.1-0.5,0-0.8
			C9.6,18.5,9.5,18.3,9.4,18.1z"/>
		<path class="st2" d="M22.9,11.3c-0.1,0.2,0,0.4-0.1,0.6c-0.2-0.2-0.4-0.4-0.6-0.6c-0.2,1.1-0.4,2.1-0.9,3.1c0-0.1,0-0.2,0-0.3
			c-0.1,0.6,0,1.2-0.1,1.8c-0.1,0.4,0,0.8-0.1,1.2c-0.1,0.5-0.2,0.9-0.5,1.4c-0.1,0.1-0.1,0.2,0.1,0.2c0.2,0.1,0.2,0.2,0,0.3
			c-0.1,0.1-0.1,0-0.2,0c-0.2-0.1-0.3,0.1-0.3,0.2c-0.1,0.2,0.1,0.1,0.2,0.2c0,0,0.1,0,0.2,0c0.2-0.2,0.4-0.5,0.5-0.7
			c0.5-0.8,0.7-1.8,0.7-2.7c0-0.3,0-0.7,0-1c0-0.2,0.1-0.4,0.3-0.5c0.1,0,0.1-0.1,0.2-0.1c0.5-0.4,0.7-1,0.8-1.6
			C23,12.2,22.9,11.8,22.9,11.3z"/>
	</g>
	<path class="st3" d="M15,14.2c0.2,0,0.4,0,0.6,0c0.1,0,0.1,0,0.1,0.1c-0.1,0.2-0.3,0.2-0.5,0.2c-0.3,0-0.5,0-0.7-0.2
		c-0.1,0-0.1-0.1-0.1-0.2c0-0.1,0.1-0.1,0.2-0.1C14.7,14.2,14.8,14.2,15,14.2z"/>
	<g>
		<path class="st4" d="M18.4,11.8C18.3,11.8,18.3,11.8,18.4,11.8c-0.2-0.1-0.4-0.1-0.5,0c-0.1,0.1-0.1,0.2-0.1,0.2c0,0,0,0.1,0,0.1
			c0,0.1-0.1,0.4,0.1,0.6c0,0,0.1,0.1,0.2,0.1c0.2,0.1,0.4,0,0.5-0.2C18.7,12.5,18.6,12,18.4,11.8z"/>
		<path class="st4" d="M11.9,11.8c-0.3,0-0.5,0.2-0.5,0.4c0,0.1,0,0.2,0,0.3c0,0.2,0.1,0.3,0.3,0.4c0.2,0.1,0.3,0,0.5-0.1
			c0.2-0.1,0.2-0.3,0.2-0.5c0,0,0-0.1,0-0.1C12.3,12,12.1,11.8,11.9,11.8z"/>
	</g>
	<g>
		<path class="st5" d="M17,16.5c-0.7,0-1.3,0-2,0c-0.7,0-1.3,0-2,0c-0.2,0-0.2,0.1-0.2,0.2c0,0.1,0.1,0.2,0.1,0.3
			c0.1,0.4,0.3,0.7,0.5,1c0.7,0.7,1.6,0.9,2.5,0.5c0.4-0.1,0.6-0.4,0.9-0.7c0.2-0.3,0.4-0.7,0.4-1.1C17.2,16.5,17.1,16.5,17,16.5z"
			/>
		<path class="st5" d="M18.2,12.3C18.2,12.3,18.2,12.2,18.2,12.3c-0.1,0-0.2,0-0.2,0c0,0-0.1,0.1-0.1,0.1c0,0,0,0,0,0.1
			c0,0,0,0.2,0.1,0.2c0,0,0,0,0.1,0.1c0.1,0,0.2,0,0.2-0.1C18.3,12.5,18.3,12.3,18.2,12.3z"/>
		<path class="st5" d="M11.8,12.2c-0.1,0-0.2,0.1-0.2,0.2c0,0,0,0.1,0,0.1c0,0.1,0.1,0.1,0.1,0.2c0.1,0,0.1,0,0.2,0
			c0.1-0.1,0.1-0.1,0.1-0.2c0,0,0,0,0-0.1C11.9,12.3,11.8,12.2,11.8,12.2z"/>
	</g>
	<g>
		<path class="st6" d="M16.3,10.7c0.1,0.1,0.3-0.2,0.6-0.3c0.1,0,0.2-0.1,0.3-0.1c0.3-0.1,0.7-0.1,1-0.1c0.5,0,0.9,0.1,1.3,0.4
			c0.1,0.1,0.2,0.1,0.3,0c0.1-0.1,0-0.2-0.1-0.2c-0.1-0.1-0.2-0.1-0.3-0.2c-0.7-0.4-1.5-0.4-2.3-0.2l0,0c-0.2,0-0.4,0.1-0.5,0.2
			c0,0-0.1,0-0.1,0C16.4,10.3,16.1,10.4,16.3,10.7C16.2,10.7,16.3,10.7,16.3,10.7z"/>
		<path class="st6" d="M10.8,10.6c0.3-0.2,0.6-0.3,1-0.4c0.2,0,0.4-0.1,0.6,0c0.1,0,0.3,0,0.5,0.1c0.1,0,0.1,0,0.2,0.1
			c0.1,0,0.2,0.1,0.3,0.1c0.1,0.1,0.2,0.1,0.3,0.2c0.1,0.1,0.2,0.2,0.3,0c0.1-0.2-0.1-0.2-0.2-0.3c-0.1-0.1-0.2-0.1-0.4-0.2
			c-0.2-0.1-0.4-0.2-0.5-0.2c-0.2,0-0.4-0.1-0.7-0.1c-0.2,0-0.3,0-0.5,0.1c-0.4,0.1-0.8,0.2-1.1,0.4c-0.1,0.1-0.2,0.2-0.1,0.3
			C10.6,10.8,10.7,10.7,10.8,10.6z"/>
		<path class="st6" d="M21.1,14.7c-0.1,0,0,1.4-0.7,2.9c-0.3,0.7-0.8,1.2-1.3,1.5c0-0.9-0.2-2.8-1.4-3.6c-0.7-0.4-2-0.7-2.3-0.2
			c-0.1,0.1-0.1,0.3-0.1,0.4c0.3-0.1,0.7-0.1,1.3,0c0.4,0.1,0.8,0.1,1,0.3c0.7,0.6,0.8,2.2,0,3.1c-0.7,0.8-1.9,1-2.1,0.7
			c-0.1-0.1-0.1-0.4-0.3-0.6c0,0-0.1-0.1-0.1-0.1C15,19,15,19.1,15,19.1c-0.1,0.4-0.2,0.5-0.3,0.6c-0.5,0.4-1.6,0.1-2.2-0.5
			c-0.9-0.9-0.9-2.6-0.1-3.2c0.3-0.3,0.8-0.3,1.3-0.3c0.5,0,0.9,0,1.1,0c0-0.1,0-0.3-0.1-0.4c-0.4-0.5-1.7-0.2-2.4,0.2
			c-1.4,0.8-1.5,2.9-1.5,3.8C9,18,8.8,14.6,8.8,14.6c-0.1,0.4-0.2,1.1-0.1,1.8c0,0.5,0.3,2.5,2,4.1c1.5,1.4,3.3,1.5,4.1,1.5
			c0.6,0,3,0.1,4.8-1.6c0.9-0.9,1.3-2,1.5-2.5C21.5,16.2,21.2,14.7,21.1,14.7z"/>
	</g>
	<path class="st7" d="M21.1,14.1c-0.3,0-0.7-1.8-0.3-3.4c0.1-0.6,0.3-0.7,0.3-1.2c0-1.3-1-2.2-1.2-2.3c-0.7-0.6-1.4-0.7-1.8-0.8
		c-1.1-0.2-1.6,0.1-3,0.3c-2.6,0.3-4.1-0.4-4.6,0.4c-0.1,0.2,0,0.3-0.3,0.9c-0.3,0.7-0.6,1-0.9,1.4C9,10,9,10.7,8.9,12
		c-0.1,0.8,0,2,0,2.2c0,0.1,0.1,0.1,0,0.2c-0.1,0-0.1-0.1-0.1-0.1c-0.1-0.3-0.2-0.5-0.3-0.8c-0.3-0.8-0.5-1.6-0.6-2.5
		c0-0.1,0-0.2,0-0.3C7.7,9.8,7.6,8.9,7.6,8c0-0.9,0.2-1.8,0.5-2.7c0.4-0.9,1.1-1.6,2.1-1.9c0.4-0.1,0.7-0.2,1.1-0.2
		c0.1,0,0.2,0,0.3-0.1c2.3-1.7,4.8-1.7,7.2-0.4c2.9,1.6,4.6,5,4.1,8.4c0,0.1,0,0.1,0,0.2c0,0.1,0,0.2,0,0.4c0,0.2-0.1,0.2-0.3,0.1
		c-0.1-0.1-0.2-0.2-0.3-0.2c0,0-0.1-0.1-0.1-0.1c0,0,0,0,0,0c0,0,0,0.1,0,0.1C22.1,11.8,21.5,14.1,21.1,14.1z"/>
</g>
</svg>
